<svg width="32" height="32" viewBox="0 0 32 32" fill="none" xmlns="http://www.w3.org/2000/svg">
<path d="M13.6667 20.3333L20.5867 16.3333L13.6667 12.3333V20.3333ZM29.08 9.89333C29.2533 10.52 29.3733 11.36 29.4533 12.4267C29.5467 13.4933 29.5867 14.4133 29.5867 15.2133L29.6667 16.3333C29.6667 19.2533 29.4533 21.4 29.08 22.7733C28.7467 23.9733 27.9733 24.7467 26.7733 25.08C26.1467 25.2533 25 25.3733 23.24 25.4533C21.5067 25.5467 19.92 25.5867 18.4533 25.5867L16.3333 25.6667C10.7467 25.6667 7.26667 25.4533 5.89333 25.08C4.69333 24.7467 3.92 23.9733 3.58667 22.7733C3.41333 22.1467 3.29333 21.3067 3.21333 20.24C3.12 19.1733 3.08 18.2533 3.08 17.4533L3 16.3333C3 13.4133 3.21333 11.2667 3.58667 9.89333C3.92 8.69333 4.69333 7.92 5.89333 7.58667C6.52 7.41333 7.66667 7.29333 9.42667 7.21333C11.16 7.12 12.7467 7.08 14.2133 7.08L16.3333 7C21.92 7 25.4 7.21333 26.7733 7.58667C27.9733 7.92 28.7467 8.69333 29.08 9.89333Z" fill="#FDEEE3"/>
</svg>
