<svg width="375" height="280" viewBox="0 0 375 280" fill="none" xmlns="http://www.w3.org/2000/svg">
<path d="M247.508 164.132C222.841 147.429 191.763 144.468 164.372 156.216C136.982 167.963 117.705 192.521 112.807 221.903L100.998 292.705C99.0385 304.451 100.876 316.264 106.307 326.859C111.74 337.457 120.259 345.841 130.945 351.114C141.633 356.377 153.48 358.026 165.207 355.885C176.933 353.743 187.435 348.006 195.577 339.298L196.12 338.712C216.702 317.023 245.586 304.753 275.506 305.018C283.223 305.086 290.723 303.577 297.665 300.599C301.44 298.98 305.054 296.924 308.449 294.453C318.084 287.436 325.055 277.716 328.61 266.341C332.161 254.971 331.961 243.016 328.028 231.772C324.096 220.528 316.805 211.056 306.942 204.375L247.508 164.132ZM86.7483 232.993C95.6012 224.381 99.9926 212.396 99.1123 199.244C98.276 186.728 92.6969 174.586 83.4 165.053C74.1044 155.529 62.1033 149.646 49.605 148.486C36.4771 147.27 24.3759 151.346 15.543 159.958C-2.23458 177.263 -0.731139 207.733 18.9032 227.893C34.5578 243.926 57.0523 248.638 74.5344 241.14C79.0731 239.2 83.2141 236.438 86.7483 232.993ZM137.21 159.848C163.819 148.436 174.898 114.508 161.907 84.2179C148.913 53.92 116.693 38.5569 90.0842 49.9692C63.4778 61.3804 52.4031 95.3117 65.3975 125.61C78.3885 155.9 110.603 171.26 137.21 159.848ZM226.339 137.601L226.342 137.6C230.92 137.211 235.407 136.089 239.629 134.275C259.034 125.953 271.893 103.73 269.808 78.9468C268.609 64.6805 262.674 51.5974 253.097 42.1102C243.075 32.1766 230.311 27.3201 217.157 28.4349C203.999 29.5505 192.228 36.4872 184.008 47.9652C176.155 58.929 172.494 72.8256 173.698 87.0894C176.232 117.183 199.847 139.842 226.339 137.601ZM325.215 87.6037L325.204 87.5993C301.046 81.9256 276.12 99.566 269.639 126.932C263.177 154.301 277.56 181.201 301.695 186.897C310.499 188.977 319.409 187.954 327.489 184.488C341.574 178.448 353.146 164.981 357.276 147.573C363.735 120.204 349.355 93.3026 325.215 87.6031L325.215 87.6037Z" fill="#E47537"/>
</svg>
