<svg xmlns="http://www.w3.org/2000/svg" width="200" height="35" fill="none" viewBox="0 0 200 35"><g clip-path="url(#a)"><path fill="#FDEEE3" d="M23.05 16.362c-1.55-2.457-4.192-3.924-7.066-3.924s-5.515 1.467-7.066 3.924l-3.738 5.92a5.42 5.42 0 0 0-.828 3.281A5.4 5.4 0 0 0 5.614 28.7a5.27 5.27 0 0 0 2.855 1.753c1.12.26 2.27.15 3.322-.32l.07-.032a10.3 10.3 0 0 1 8.316.031 5.2 5.2 0 0 0 3.321.322 5.26 5.26 0 0 0 2.855-1.753 5.4 5.4 0 0 0 1.263-3.136 5.42 5.42 0 0 0-.828-3.282zm-16.863-.008c1.112-.433 1.956-1.343 2.378-2.562.402-1.16.369-2.468-.093-3.686S7.171 7.896 6.107 7.31c-1.117-.617-2.344-.717-3.455-.283C.42 7.898-.606 10.7.369 13.274c.778 2.049 2.593 3.342 4.427 3.342.476 0 .948-.088 1.392-.262m7.252-4.638c2.792 0 5.063-2.628 5.063-5.857S16.231 0 13.44 0 8.376 2.628 8.376 5.859s2.271 5.857 5.063 5.857m8.744 1.439c.421.142.861.214 1.304.214 2.037 0 4.02-1.505 4.778-3.817.436-1.332.407-2.739-.08-3.963-.512-1.282-1.458-2.212-2.666-2.62-1.209-.408-2.515-.238-3.68.478-1.113.684-1.966 1.795-2.401 3.126-.92 2.808.312 5.76 2.745 6.582m10.663-.684c-1.926-1.445-4.805-.819-6.42 1.396-1.613 2.215-1.36 5.193.562 6.638.7.527 1.53.78 2.377.78 1.478 0 3.015-.766 4.043-2.175 1.613-2.215 1.36-5.193-.562-6.639"/></g><path fill="#FDEEE3" d="M184.615 16.256q-.31 0-.31-.33v-1.2q0-.314.31-.314h1.535v-3.403q0-.225.059-.45.074-.225.369-.345l8.15-3.058q.561-.21.93-.315.37-.105.65-.105.104 0 .221.045.134.03.237.12.117.09.192.255.073.15.073.375v6.88h2.658q.31 0 .31.316v1.199q0 .33-.31.33h-2.658v6.041q0 1.065.34 1.5.354.434 1.078.434.162 0 .339-.03.178-.045.325-.075.163-.045.295-.075a.7.7 0 0 1 .222-.045q.162 0 .162.195v1.154q0 .3-.118.405a.7.7 0 0 1-.206.135q-.562.24-1.329.48-.754.24-1.639.42-.871.195-1.846.3-.974.12-1.948.12-1.404 0-2.614-.15-1.196-.136-2.081-.645-.871-.51-1.374-1.514-.486-1.005-.487-2.729v-5.921zm-4.946 7.945q.399 0 .723-.105.326-.12.576-.255.266-.135.428-.24.177-.12.266-.12.133 0 .177.045.06.045.133.165l.517.81a.4.4 0 0 1 .074.21q0 .105-.059.165-.06.06-.118.105-.488.345-1.196.75-.71.389-1.654.719-.93.33-2.111.54-1.182.224-2.599.224-1.107 0-2.214-.18-1.108-.18-2.126-.57-1.005-.39-1.875-1.019a6.6 6.6 0 0 1-1.521-1.544 7.6 7.6 0 0 1-1.004-2.113q-.369-1.215-.369-2.774 0-1.53.369-2.728.37-1.215 1.004-2.129.65-.915 1.521-1.544a8 8 0 0 1 1.875-1.034 10 10 0 0 1 2.126-.585q1.107-.18 2.214-.18 1.846 0 3.426.42 1.594.42 2.761 1.379 1.165.96 1.83 2.518.665 1.56.665 3.823v.84q0 .27-.133.42t-.443.15h-6.113q.119 1.108.414 1.858.31.735.694 1.185a2.33 2.33 0 0 0 1.742.794m1.742-5.682q0-1.2-.192-1.978-.177-.795-.487-1.26-.31-.48-.738-.674a2 2 0 0 0-.871-.195q-.34 0-.739.135t-.752.57q-.34.435-.591 1.244-.236.81-.281 2.158zm-33.515-5.097q0-.51.089-.899.088-.405.34-.66.25-.255.694-.39.443-.134 1.151-.134h6.039q.665 0 1.137.135.487.135.693.464.192-.135.458-.285a4.9 4.9 0 0 1 1.299-.524q.369-.09.768-.09 1.417 0 2.2.99.797.988.797 2.908v11.048q0 .255-.074.405a.5.5 0 0 1-.162.21.5.5 0 0 1-.221.074q-.134.015-.266.015h-.945q-.384 0-.502-.224a1.1 1.1 0 0 1-.103-.48V14.787q0-.855-.31-1.305-.296-.45-.96-.45-.34 0-.694.195-.34.18-.546.39v10.974q0 .525-.089.914-.088.39-.339.66-.252.255-.694.39-.444.134-1.152.134h-6.334q-.708 0-1.151-.134-.444-.135-.694-.39a1.3 1.3 0 0 1-.34-.645 4.2 4.2 0 0 1-.089-.914zM135.022 26.69q-.796 0-1.609-.105a9.5 9.5 0 0 1-1.535-.33 7 7 0 0 1-1.359-.615 4.4 4.4 0 0 1-1.107-.93 4.3 4.3 0 0 1-.723-1.303q-.266-.75-.266-1.724 0-1.305.487-2.234a4.6 4.6 0 0 1 1.299-1.544 6.2 6.2 0 0 1 1.89-.945q1.063-.33 2.2-.42v-1.034q0-.585-.148-.93-.147-.344-.384-.509a1.04 1.04 0 0 0-.501-.225q-.267-.06-.517-.06-.296 0-.635.09a5 5 0 0 0-.635.225q-.31.12-.591.27t-.472.27a4 4 0 0 1-.162.105.3.3 0 0 1-.148.045q-.133 0-.251-.195l-.502-.81a.4.4 0 0 1-.074-.225q0-.12.089-.21.103-.09.192-.15.487-.344 1.24-.704t1.683-.645a16 16 0 0 1 2.037-.464 14 14 0 0 1 2.259-.18q1.108 0 2.156.075 1.063.075 1.993.33.945.24 1.713.704.782.45 1.343 1.2.576.75.886 1.843.31 1.095.31 2.624v6.686q0 .494-.088.884-.089.375-.34.63t-.694.39q-.443.12-1.151.12zm-.723-8.246q-1.063 0-1.786.27-.725.27-1.167.72t-.635 1.05q-.192.584-.192 1.213t.192 1.2q.192.554.635.974.442.42 1.167.66.723.24 1.786.24zM115.238 4.218q0-.51.089-.9.088-.405.339-.66.252-.255.694-.389.444-.135 1.152-.135h6.467q.679 0 1.092.135.413.12.65.375.236.255.31.644.088.39.088.915v20.433q0 .51-.088.9a1.5 1.5 0 0 1-.325.644q-.236.255-.664.39-.414.12-1.093.12h-6.437q-.708 0-1.152-.135-.442-.135-.694-.39a1.3 1.3 0 0 1-.339-.645 4.2 4.2 0 0 1-.089-.914zm-11.014 6.776q1.092 0 2.17.165t2.067.54 1.831.974q.841.6 1.461 1.484.621.885.975 2.069.354 1.17.354 2.698 0 1.89-.531 3.268-.532 1.365-1.418 2.294a6.7 6.7 0 0 1-2.052 1.469 9.8 9.8 0 0 1-2.451.735v4.077q0 .54-.088.93a1.4 1.4 0 0 1-.325.644q-.222.27-.65.39-.413.135-1.078.135h-6.466q-.71 0-1.152-.135t-.694-.405a1.3 1.3 0 0 1-.34-.644 4.2 4.2 0 0 1-.088-.915V18.774q0-1.858.561-3.313.576-1.455 1.654-2.443 1.092-.99 2.657-1.5 1.58-.524 3.603-.524m6.762 7.915q0-1.155-.251-2.144a5.3 5.3 0 0 0-.783-1.754 4.2 4.2 0 0 0-1.358-1.244q-.812-.495-1.964-.63v11.634q1.152-.15 1.964-.645a4.3 4.3 0 0 0 1.358-1.274q.532-.78.783-1.784a9 9 0 0 0 .251-2.159m-32.879-2.653q-.31 0-.31-.33v-1.2q0-.314.31-.314h1.535v-3.403q0-.225.06-.45.074-.225.369-.345l8.15-3.058q.56-.21.93-.315.368-.105.65-.105.102 0 .22.045.134.03.237.12.118.09.192.255.074.15.074.375v6.88h2.657q.31 0 .31.316v1.199q0 .33-.31.33h-2.657v6.041q0 1.065.34 1.5.353.434 1.077.434.162 0 .34-.03a7 7 0 0 1 .324-.075 6 6 0 0 1 .296-.075.7.7 0 0 1 .221-.045q.162 0 .162.195v1.154q0 .3-.118.405a.7.7 0 0 1-.206.135q-.56.24-1.33.48-.751.24-1.638.42-.87.195-1.845.3-.975.12-1.95.12-1.401 0-2.613-.15-1.195-.136-2.081-.645-.872-.51-1.373-1.514-.488-1.005-.488-2.729v-5.921zm-4.947 7.945q.399 0 .724-.105.324-.12.575-.255.266-.135.429-.24.177-.12.265-.12.133 0 .177.045a.6.6 0 0 1 .133.165l.517.81q.074.12.074.21 0 .105-.06.165-.058.06-.117.105-.488.345-1.196.75-.71.389-1.654.719-.93.33-2.111.54-1.181.224-2.599.224-1.107 0-2.214-.18t-2.126-.57q-1.004-.39-1.875-1.019a6.6 6.6 0 0 1-1.52-1.544 7.6 7.6 0 0 1-1.005-2.113q-.369-1.215-.369-2.774 0-1.53.37-2.728.368-1.215 1.003-2.129a6.6 6.6 0 0 1 1.52-1.544 8 8 0 0 1 1.876-1.034q1.019-.405 2.126-.585a14 14 0 0 1 2.215-.18q1.845 0 3.425.42 1.594.42 2.76 1.379 1.167.96 1.832 2.518.663 1.56.664 3.823v.84q0 .27-.133.42t-.443.15h-6.112q.117 1.108.413 1.858.31.735.694 1.185a2.33 2.33 0 0 0 1.742.794m1.742-5.682q0-1.2-.192-1.978-.177-.795-.487-1.26-.31-.48-.738-.674a2 2 0 0 0-.871-.195q-.34 0-.738.135-.399.135-.753.57-.34.435-.59 1.244-.237.81-.281 2.158zM41.122 7.261q0-.525.089-.914a1.3 1.3 0 0 1 .34-.645q.25-.27.693-.405t1.152-.135h6.585q1.019 0 2.022.135 1.005.12 1.92.42a8 8 0 0 1 1.712.78q.798.48 1.373 1.199.592.705.916 1.664.34.945.34 2.189 0 1.843-.503 3.118-.487 1.26-1.329 2.083-.84.825-1.963 1.26-1.107.435-2.333.63v5.621q0 .345-.059.765a2 2 0 0 1-.295.794q-.237.36-.724.615-.486.255-1.343.255h-6.32q-.709 0-1.15-.135-.444-.135-.695-.39a1.3 1.3 0 0 1-.34-.645 4.2 4.2 0 0 1-.088-.914zm15.06 4.512q0-.9-.237-1.649a3.7 3.7 0 0 0-.723-1.334 3.8 3.8 0 0 0-1.255-.944q-.768-.375-1.83-.51v9.31q1.062-.165 1.83-.6t1.255-1.08a4.5 4.5 0 0 0 .723-1.454q.237-.825.237-1.739"/><defs><clipPath id="a"><path fill="#fff" d="M0 0h34.47v35H0z"/></clipPath></defs></svg>