<svg xmlns="http://www.w3.org/2000/svg" width="292" height="78" fill="none" viewBox="0 0 292 78"><path fill="#FDEEE3" d="M267.488 69.708v1.952h15.786c.676 0 1.062-.366 1.062-.976s-.386-.977-1.062-.977zm15.786-6.346h-15.786v1.953h15.786c.676 0 1.062-.367 1.062-.977s-.386-.976-1.062-.976m2.655 12.69H259.86V58.97h26.069c3.549 0 6.035 1.709 6.035 4.881 0 1.66-.773 2.904-2.1 3.661 1.327.757 2.1 2.001 2.1 3.66 0 3.173-2.486 4.882-6.035 4.882m-59.376-.001V58.969h31.379v4.393H234.18v1.953h23.752v4.392H234.18v1.953h23.752v4.393zm-35.736 0V58.969h7.628v11.227h16.848V58.969h7.628v11.227h1.931v7.81h-7.628v-1.953zm-41.463 0V58.969h10.186l9.389 11.715 9.39-11.715h10.572v17.084h-7.627v-10.03l-8.038 10.03h-8.593l-7.652-9.543v9.543zm-1.935-17.083v17.083h-7.628V66.29l-16.848 9.762h-7.628V58.969h7.628v9.762l16.848-9.762zM89.14 71.66h15.787c.675 0 1.062-.366 1.062-.976s-.387-.977-1.062-.977H89.14zm18.442 4.393h-26.07V58.969h31.38v4.393H89.14v1.953h18.442c3.548 0 6.034 2.196 6.034 5.369s-2.486 5.369-6.034 5.369M70.03 65.07H55.549c-1.328 0-2.414 1.099-2.414 2.441s1.086 2.44 2.414 2.44H70.03c1.327 0 2.413-1.098 2.413-2.44s-1.086-2.44-2.413-2.44m-16.05-6.345H71.6c4.66 0 8.449 4.076 8.449 8.786s-3.79 8.786-8.448 8.786H53.979c-3.91 0-7.217-2.88-8.159-6.59h-1.255v6.346h-7.627V58.969h7.627v6.346h1.255c.942-3.71 4.249-6.59 8.159-6.59m-35.996 5.613-9.39 11.715H0l13.686-17.084h8.593l13.686 17.084h-8.593zm239.693-34.731h10.765l6.228 4.515 6.228-4.515h10.765l-11.61 8.42L292 46.69h-10.766l-6.565-4.759-6.566 4.76h-10.765l11.948-8.665zm-1.542 0V46.69h-7.628v-9.762l-16.848 9.762h-7.628V29.607h7.628v9.762l16.848-9.762zm-59.626-.244h17.621c4.658 0 8.448 4.075 8.448 8.785s-3.79 8.786-8.448 8.786h-17.621c-4.659 0-8.448-4.075-8.448-8.785s3.789-8.786 8.448-8.786m16.052 6.345h-14.483c-1.328 0-2.414 1.098-2.414 2.44 0 1.343 1.086 2.441 2.414 2.441h14.483c1.327 0 2.413-1.098 2.413-2.44 0-1.343-1.086-2.441-2.413-2.441m-49.945 4.637v1.952h15.786c.676 0 1.062-.366 1.062-.976s-.386-.976-1.062-.976zM178.401 34h-15.786v1.952h15.786c.676 0 1.062-.366 1.062-.976s-.386-.976-1.062-.976m2.655 12.69h-26.069V29.607h26.069c3.549 0 6.035 1.708 6.035 4.88 0 1.66-.773 2.905-2.1 3.661 1.327.757 2.1 2.002 2.1 3.661 0 3.173-2.486 4.881-6.035 4.881m-47.893 0V35.464h-12.214v-5.857h32.104v5.857h-12.262V46.69zm-49.631-9.274h15.786v-1.952H83.53c-.675 0-1.062.366-1.062.976s.387.976 1.063.976m-1.932-7.81h25.345V46.69h-7.627v-3.416H89.42l-4.9 3.416h-9.68l5.142-3.587c-3.234-.757-5.141-3.71-5.141-6.663 0-3.417 2.534-6.833 6.758-6.833m-25.477 5.369-9.39 11.714H38.14l13.686-17.083h8.593L74.105 46.69h-8.593zM12.48 37.685l-1.449 3.148h16.583v-5.37H15.907c-1.617 0-2.752.733-3.428 2.222m24.692 10.958h-7.627V46.69H7.628v1.953H0v-7.81h2.703l2.438-5.442c1.762-3.88 4.683-5.784 8.883-5.784h21.217v11.226h1.931zM194.572 9.518h-15.786v1.952h15.786c.676 0 1.062-.366 1.062-.976s-.386-.976-1.062-.976m1.931 7.81h-25.345V.244h7.628v3.417h17.717c4.224 0 6.759 3.417 6.759 6.833s-2.535 6.834-6.759 6.834m15.352 0h-7.628V.244h7.628zM161.264 6.101h-15.786v1.953h15.786c.676 0 1.062-.366 1.062-.976s-.386-.977-1.062-.977m-15.786 11.227h-7.627V.244h25.344c4.225 0 6.759 3.417 6.759 6.834s-2.534 6.833-6.759 6.833h-17.717zM118.895 5.613l-3.524 4.393h7.048zM114.598.244h8.593l13.687 17.084h-8.593l-1.956-2.44H111.46l-1.955 2.44h-8.593zM76.67 10.982v1.953h15.787c.676 0 1.062-.366 1.062-.976s-.386-.977-1.062-.977zm15.787-6.345H76.67v1.952h15.786c.676 0 1.062-.366 1.062-.976s-.386-.976-1.062-.976m2.655 12.69H69.043V.245h26.069c3.548 0 6.034 1.708 6.034 4.881 0 1.66-.772 2.904-2.1 3.66 1.328.757 2.1 2.002 2.1 3.662 0 3.172-2.486 4.88-6.034 4.88M41.52 0h17.621C63.8 0 67.59 4.076 67.59 8.786s-3.79 8.786-8.449 8.786h-17.62c-4.66 0-8.449-4.076-8.449-8.786S36.862 0 41.52 0m16.052 6.345H43.09c-1.327 0-2.413 1.099-2.413 2.44 0 1.343 1.086 2.441 2.413 2.441h14.483c1.328 0 2.414-1.098 2.414-2.44s-1.086-2.44-2.414-2.44M12.214 17.328V6.1H0V.244h32.103v5.857H19.841v11.227z"/></svg>