<svg width="294" height="256" viewBox="0 0 294 256" fill="none" xmlns="http://www.w3.org/2000/svg">
<g clip-path="url(#clip0_33_613)">
<path d="M528.416 -114C504.989 -114 484.761 -76.0441 475.391 -21.172C464.824 -49.647 450.38 -67.2126 434.45 -67.2126C411.023 -67.2126 390.795 -29.2568 381.424 25.6153C370.858 -2.85975 356.414 -20.4253 340.483 -20.4253C317.056 -20.4253 296.828 17.5306 287.457 72.4026C276.891 43.9276 262.447 26.3621 246.517 26.3621C223.09 26.3621 202.862 64.3179 193.491 119.19C182.925 90.7149 168.481 73.1494 152.55 73.1494C129.123 73.1494 108.895 111.105 99.5244 165.977C88.958 137.502 74.5141 119.937 58.5838 119.937C26.2383 119.937 0 192.244 0 281.468C0 370.692 26.2383 443 58.5838 443C82.0108 443 102.239 405.044 111.61 350.172C122.176 378.647 136.62 396.213 152.55 396.213C175.977 396.213 196.205 358.257 205.576 303.385C216.142 331.86 230.586 349.425 246.517 349.425C269.944 349.425 290.172 311.469 299.543 256.597C310.109 285.072 324.553 302.638 340.483 302.638C363.91 302.638 384.138 264.682 393.509 209.81C404.076 238.285 418.519 255.851 434.45 255.851C457.877 255.851 478.105 217.895 487.476 163.023C498.042 191.498 512.486 209.063 528.416 209.063C560.762 209.063 587 136.756 587 47.5316C587 -41.6923 560.794 -114 528.416 -114Z" fill="#E47537"/>
</g>
<defs>
<clipPath id="clip0_33_613">
<rect width="294" height="256" fill="white"/>
</clipPath>
</defs>
</svg>
